# xmcd
#
# Track frame offsets:
#   150
#   18820
#   38917
#   58835
#   76720
#   95225
#   112092
#   131300
#   151180
#   170042
#
# Disc length: 2500 seconds
#
# Revision: 3
# Processed by: cddbd v1.5.1PL0 Copyright (c) Steve Scherf et al.
# Submitted via: Media_Universe 3.0
#
DISCID=7909c20a
DTITLE=Stacy Lattisaw - Personal Attention
DYEAR=1900
DGENRE=R and B
TTITLE0=Personal Attention
TTITLE1=Love Town
TTITLE2=Let Me Take You Down
TTITLE3=Ain't No Mountain High Enough
TTITLE4=He's Got A Hold On Me
TTITLE5=Find Another Lover
TTITLE6=Changes
TTITLE7=Every Drop Of Your Love
TTITLE8=Call Me
TTITLE9=Electronic Eyes
EXTD=
EXTT0=
EXTT1=
EXTT2=
EXTT3=
EXTT4=
EXTT5=
EXTT6=
EXTT7=
EXTT8=
EXTT9=
PLAYORDER=
